<svg width="64" height="64" viewBox="0 0 64 64" fill="none" xmlns="http://www.w3.org/2000/svg">
  <rect width="64" height="64" rx="16" fill="#0A0A0A"/>
  <rect x="1" y="1" width="62" height="62" rx="15" stroke="url(#edge)" stroke-opacity=".75" stroke-width="2"/>
  <path d="M18 42V18h16.5C41.4 18 46 22.1 46 28.1c0 4.1-2.2 7.4-5.8 9.1L47 42H36.8l-5.5-4.3h-4.6V42H18Zm8.7-11.5h7.1c2.2 0 3.5-1 3.5-2.7 0-1.8-1.3-2.8-3.5-2.8h-7.1v5.5Z" fill="url(#mark)"/>
  <path d="M16 46h32" stroke="#22D3EE" stroke-width="3" stroke-linecap="round"/>
  <circle cx="49" cy="15" r="4" fill="#F472B6"/>
  <defs>
    <linearGradient id="edge" x1="5" y1="4" x2="61" y2="59" gradientUnits="userSpaceOnUse">
      <stop stop-color="#22D3EE"/>
      <stop offset=".52" stop-color="#F472B6"/>
      <stop offset="1" stop-color="#A78BFA"/>
    </linearGradient>
    <linearGradient id="mark" x1="18" y1="18" x2="47" y2="42" gradientUnits="userSpaceOnUse">
      <stop stop-color="#FFFFFF"/>
      <stop offset=".45" stop-color="#A5F3FC"/>
      <stop offset="1" stop-color="#F9A8D4"/>
    </linearGradient>
  </defs>
</svg>
